<svg version="1.2" xmlns="http://www.w3.org/2000/svg" viewBox="0 0 18 18" width="18" height="18">
	<title>settingiphone</title>
	<style>
		.s0 { fill: #565d61 } 
	</style>
	<path fill-rule="evenodd" class="s0" d="m9 16.4q-0.3 0-0.6 0l-0.4 0.8q-0.2 0.3-0.5 0.2-0.3 0-0.3-0.3l-0.2-0.9q-0.6-0.2-1.1-0.4l-0.7 0.5q-0.2 0.2-0.5 0.1-0.2-0.1-0.2-0.5l0.2-0.8q-0.5-0.4-0.9-0.8l-0.9 0.3q-0.2 0.1-0.5-0.1-0.2-0.2 0-0.5l0.5-0.8q-0.4-0.5-0.6-1h-0.9q-0.3 0-0.4-0.3-0.1-0.3 0.1-0.5l0.7-0.5q-0.2-0.6-0.2-1.2l-0.9-0.3q-0.2-0.1-0.2-0.4 0-0.3 0.2-0.4l0.9-0.3q0-0.6 0.2-1.2l-0.7-0.6q-0.2-0.1-0.1-0.4 0.1-0.3 0.4-0.3h0.9q0.2-0.5 0.6-1l-0.5-0.8q-0.2-0.3 0-0.5 0.3-0.2 0.5-0.1l0.9 0.3q0.4-0.4 0.9-0.8l-0.2-0.8q0-0.4 0.2-0.5 0.3-0.2 0.5 0.1l0.7 0.5q0.5-0.2 1.1-0.4l0.2-0.9q0-0.3 0.3-0.3 0.3-0.1 0.5 0.2l0.4 0.8q0.3 0 0.6 0 0.1 0 0.2 0h0.4l0.4-0.8q0.2-0.3 0.5-0.2 0.3 0 0.3 0.3l0.2 0.9q0.5 0.2 1.1 0.4l0.7-0.6q0.2-0.1 0.5 0 0.2 0.1 0.2 0.5l-0.2 0.8q0.5 0.4 0.9 0.8l0.9-0.3q0.2-0.1 0.5 0.1 0.2 0.2 0 0.5l-0.5 0.8q0.4 0.5 0.6 1h0.9q0.3 0 0.4 0.3 0.1 0.3-0.1 0.4l-0.7 0.6q0.1 0.6 0.2 1.2l0.9 0.3q0.2 0.1 0.3 0.4-0.1 0.3-0.3 0.4l-0.9 0.3q-0.1 0.6-0.2 1.2l0.7 0.5q0.2 0.2 0.1 0.5-0.1 0.3-0.4 0.3h-0.9q-0.2 0.5-0.6 1l0.5 0.8q0.2 0.3 0 0.5-0.3 0.2-0.5 0.1l-0.9-0.3q-0.4 0.4-0.9 0.8l0.2 0.8q0 0.4-0.2 0.5-0.3 0.2-0.5-0.1l-0.7-0.5q-0.6 0.2-1.1 0.4l-0.2 0.9q0 0.3-0.3 0.3-0.3 0.1-0.5-0.2l-0.4-0.8q-0.3 0-0.6 0zm6.3-7.9c-0.2-3.3-2.9-5.9-6.3-5.9-1 0-2 0.2-2.8 0.7l2.2 3.8c0.3 0 0.4 0 0.6 0 0.9 0 1.6 0.5 1.9 1.4zm-9.9-4.7c-1.7 1.1-2.7 3-2.7 5.2 0 2.2 1 4.1 2.6 5.2l2.3-3.8q-0.6-0.6-0.6-1.4 0-0.7 0.6-1.3zm3.7 6.2c0.5 0 1-0.4 1-1 0-0.5-0.5-1-1-1-0.6 0-1 0.5-1 1 0 0.6 0.4 1 1 1zm-2.9 4.7c0.9 0.4 1.8 0.7 2.9 0.7 3.4 0 6-2.6 6.3-5.9h-4.4c-0.3 0.9-1.1 1.5-1.9 1.5-0.2 0-0.3 0-0.6-0.1z"/>
</svg>